#!OML:ASF I:\Actors\actors\Patient Classification 2\Patient 1\Session 1\actor1.ASF
:FULLY-SPECIFIED
:DEGREES
379
root -2.47922 17.2978 5.51281 11.1404 47.5612 -2.44188
lowerback 30.8998 9.58821 4.00965
upperback 6.18194 13.3594 -3.50408
thorax -7.30299 6.47647 -10.1868
lowerneck 2.76254 -20.5878 -13.6981
upperneck -9.40849 -27.4212 26.9142
head 2.62827 -14.2357 8.49074
rclavicle -9.78021e-014 2.3059e-014
rhumerus 11.5445 52.4121 -69.1155
rradius 88.7243
rwrist -54.2318
rhand 46.3493 -57.7981
rfingers 7.12502
rthumb 67.3998 -60.3927
lclavicle -9.78021e-014 2.3059e-014
lhumerus -52.9058 -3.78965 83.6485
lradius 95.0741
lwrist 41.0014
lhand -2.19856 -9.33023
lfingers 7.12502
lthumb 23.4829 19.2566
rfemur 19.9235 -31.4821 31.6147
rtibia -48.2691
rfoot 4.11335 -35.2063
rtoes 0.204997
lfemur -0.812572 -22.9952 -3.16561
ltibia -43.8804
lfoot 27.3985 1.16415
ltoes -22.5719
380
root -2.50399 17.2656 5.47518 12.3869 46.8842 -1.52776
lowerback 30.9033 9.67873 3.47569
upperback 6.32719 13.2717 -3.85677
thorax -7.19004 6.46029 -10.2462
lowerneck 2.39809 -20.4459 -13.2253
upperneck -9.31792 -27.1766 26.583
head 2.54335 -14.0948 8.35677
rclavicle -8.74653e-015 4.77083e-015
rhumerus 17.5544 56.8536 -61.5088
rradius 91.1471
rwrist -53.7411
rhand 51.1368 -61.4536
rfingers 7.12502
rthumb 70.6774 -54.8963
lclavicle -8.74653e-015 4.77083e-015
lhumerus -52.8257 -4.08583 83.2459
lradius 95.2183
lwrist 41.1683
lhand -1.32687 -9.14418
lfingers 7.12502
lthumb 24.3189 19.3331
rfemur 19.542 -31.5037 31.2827
rtibia -49.118
rfoot 4.99536 -34.7517
rtoes 0.352468
lfemur -1.14503 -22.8945 -3.51596
ltibia -44.5123
lfoot 27.7819 1.68886
ltoes -22.7265
381
root -2.53421 17.2417 5.45929 12.4501 45.9522 -1.76676
lowerback 30.9434 9.81136 3.18598
upperback 6.50074 13.3353 -3.94667
thorax -7.04318 6.50934 -10.195
lowerneck 2.03109 -20.2083 -12.8481
upperneck -9.28546 -26.802 26.3888
head 2.45796 -13.8925 8.29312
rclavicle 1.59028e-014 -3.33958e-014
rhumerus 24.3358 60.0229 -52.9831
rradius 93.966
rwrist -55.0902
rhand 52.554 -66.69
rfingers 7.12502
rthumb 71.5265 -56.8164
lclavicle 1.59028e-014 -3.33958e-014
lhumerus -52.6508 -4.38731 82.7676
lradius 95.3182
lwrist 41.8977
lhand -0.857085 -8.69886
lfingers 7.12502
lthumb 24.7692 19.7173
rfemur 19.4507 -30.8938 31.5279
rtibia -49.6044
rfoot 5.46372 -34.4439
rtoes 0.623492
lfemur -0.902623 -22.4581 -3.21101
ltibia -45.116
lfoot 27.9767 2.05275
ltoes -23.6604
382
root -2.57121 17.2233 5.46351 11.6615 44.7866 -2.89152
lowerback 30.9377 10.0312 3.10696
upperback 6.66287 13.5853 -3.8853
thorax -6.85034 6.64339 -10.1363
lowerneck 1.79593 -19.971 -12.6571
upperneck -9.33342 -26.441 26.5408
head 2.41693 -13.7121 8.35448
rclavicle -3.02153e-014 1.43125e-014
rhumerus 30.5719 61.7886 -44.9322
rradius 96.6382
rwrist -55.5904
rhand 54.1816 -68.4708
rfingers 7.12502
rthumb 72.4142 -54.4037
lclavicle -3.02153e-014 1.43125e-014
lhumerus -52.3979 -4.92696 82.1912
lradius 95.4321
lwrist 43.1053
lhand -0.760114 -7.9432
lfingers 7.12502
lthumb 24.8621 20.4601
rfemur 19.4906 -29.771 32.2889
rtibia -49.7111
rfoot 5.64063 -34.1939
rtoes 0.825837
lfemur -0.253974 -21.6595 -2.35663
ltibia -45.652
lfoot 28.0313 2.37015
ltoes -24.6652
383
root -2.59792 17.2143 5.45269 11.2754 43.4701 -3.61468
lowerback 30.8961 10.2205 2.93021
upperback 6.72033 13.7468 -4.02894
thorax -6.74651 6.73032 -10.2279
lowerneck 1.6087 -19.7626 -12.3747
upperneck -9.35322 -26.124 26.7049
head 2.3737 -13.5576 8.40579
rclavicle 6.36111e-015 -4.53229e-014
rhumerus 35.251 62.347 -38.5298
rradius 99.183
rwrist -56.3088
rhand 54.7535 -67.0499
rfingers 7.12502
rthumb 72.7015 -51.4086
lclavicle 6.36111e-015 -4.53229e-014
lhumerus -52.1744 -5.57777 81.6533
lradius 95.4319
lwrist 43.9763
lhand -0.712567 -7.29359
lfingers 7.12502
lthumb 24.9077 21.1035
rfemur 19.2749 -28.6811 32.749
rtibia -49.5073
rfoot 5.61942 -33.8529
rtoes 1.05182
lfemur 0.272675 -20.8224 -1.83076
ltibia -46.0593
lfoot 28.0688 2.6896
ltoes -25.5653
384
root -2.61347 17.2199 5.42867 11.1168 41.9897 -4.14022
lowerback 30.7053 10.2903 2.55755
upperback 6.74562 13.6945 -4.18401
thorax -6.69009 6.70968 -10.1578
lowerneck 1.21005 -19.416 -12.1059
upperneck -9.1906 -25.6333 26.5083
head 2.32835 -13.2842 8.35834
rclavicle 6.59965e-014 -1.35174e-014
rhumerus 38.0073 62.4198 -33.5549
rradius 101.938
rwrist -58.0405
rhand 53.9303 -68.427
rfingers 7.12502
rthumb 72.2838 -55.035
lclavicle 6.59965e-014 -1.35174e-014
lhumerus -52.0641 -5.63811 81.3553
lradius 95.2734
lwrist 44.2256
lhand -0.456061 -6.74411
lfingers 7.12502
lthumb 25.1535 21.6187
rfemur 18.837 -27.5601 33.0293
rtibia -49.0303
rfoot 5.37883 -33.4525
rtoes 1.68063
lfemur 0.689045 -19.8314 -1.53624
ltibia -46.2786
lfoot 27.9691 3.00246
ltoes -26.2545
385
root -2.61518 17.2354 5.40457 10.7967 40.3123 -4.83716
lowerback 30.1553 10.2321 2.08455
upperback 7.11534 13.456 -3.90663
thorax -6.61695 6.56547 -10.1035
lowerneck 0.42211 -18.9283 -12.0091
upperneck -8.75973 -24.9784 26.0452
head 2.37643 -12.8788 8.22733
rclavicle -3.65764e-014 5.48646e-014
rhumerus 39.5031 61.7329 -29.5951
rradius 104.73
rwrist -58.6738
rhand 51.716 -67.2443
rfingers 7.12502
rthumb 71.0323 -59.3683
lclavicle -3.65764e-014 5.48646e-014
lhumerus -52.0505 -5.21845 81.0708
lradius 95.0696
lwrist 44.238
lhand -0.246642 -6.31049
lfingers 7.12502
lthumb 25.3541 22.024
rfemur 18.3824 -26.3826 33.3428
rtibia -48.278
rfoot 5.0555 -32.8973
rtoes 2.20138
lfemur 1.20234 -18.5564 -1.26201
ltibia -46.2836
lfoot 27.6477 3.33727
ltoes -26.322
386
root -2.60134 17.26 5.37951 10.2873 38.4572 -5.64917
lowerback 29.75 10.1238 1.66463
upperback 7.17341 13.1833 -3.95509
thorax -6.48934 6.44107 -9.76684
lowerneck -0.495004 -18.3954 -11.918
upperneck -8.23534 -24.266 25.5612
head 2.46403 -12.4321 8.0829
rclavicle -1.51076e-014 3.37934e-014
rhumerus 38.9107 60.2234 -27.5652
rradius 107.291
rwrist -59.7852
rhand 52.0916 -66.9191
rfingers 7.12502
rthumb 71.2567 -58.161
lclavicle -1.51076e-014 3.37934e-014
lhumerus -52.1986 -5.00857 80.5733
lradius 94.9123
lwrist 44.4849
lhand -0.231195 -5.88858
lfingers 7.12502
lthumb 25.3689 22.4438
rfemur 17.973 -25.2315 33.6115
rtibia -47.1573
rfoot 4.62987 -32.0937
rtoes 2.66421
lfemur 1.89595 -17.0567 -1.04558
ltibia -46.0692
lfoot 27.1607 3.58851
ltoes -26.4542
387
root -2.57677 17.2988 5.35776 9.51127 36.3438 -6.61334
lowerback 29.4059 10.0125 1.24915
upperback 7.189 12.9112 -3.95779
thorax -6.44541 6.30697 -9.40181
lowerneck -1.21278 -17.7181 -11.8274
upperneck -7.84353 -23.3404 25.0857
head 2.45001 -11.9016 8.00221
rclavicle -1.95604e-013 4.41302e-014
rhumerus 36.5799 57.9169 -26.7396
rradius 109.493
rwrist -61.6768
rhand 52.5844 -68.89
rfingers 7.12502
rthumb 71.5439 -58.942
lclavicle -1.95604e-013 4.41302e-014
lhumerus -52.5354 -4.71594 79.951
lradius 94.7432
lwrist 45.187
lhand 0.0293109 -5.21177
lfingers 7.12502
lthumb 25.6184 23.085
rfemur 17.6425 -24.0472 33.8632
rtibia -45.5792
rfoot 3.98156 -31.045
rtoes 3.28489
lfemur 2.87182 -15.3223 -0.794493
ltibia -45.6248
lfoot 26.4851 3.78097
ltoes -26.7642
388
root -2.5418 17.358 5.34448 8.51023 33.9014 -7.68208
lowerback 29.1116 9.9448 0.795309
upperback 7.16513 12.6786 -4.00804
thorax -6.4548 6.18745 -9.09676
lowerneck -1.94184 -17.0147 -11.3544
upperneck -7.46216 -22.3683 24.4445
head 2.36306 -11.3565 7.83142
rclavicle -5.18828e-014 6.30147e-014
rhumerus 33.0347 54.6508 -27.0128
rradius 110.921
rwrist -63.815
rhand 52.9134 -68.715
rfingers 7.12502
rthumb 71.731 -57.9514
lclavicle -5.18828e-014 6.30147e-014
lhumerus -52.9477 -4.49836 79.1678
lradius 94.6426
lwrist 46.3164
lhand 0.206967 -4.1881
lfingers 7.12502
lthumb 25.7886 24.084
rfemur 17.3953 -22.8499 34.0776
rtibia -43.513
rfoot 3.032 -29.8458
rtoes 3.40129
lfemur 4.16263 -13.3452 -0.505201
ltibia -44.9471
lfoot 25.554 4.0177
ltoes -26.5412
389
root -2.49355 17.4364 5.34122 7.38491 31.1254 -8.71017
lowerback 28.8974 9.96889 0.342083
upperback 7.09794 12.551 -4.17453
thorax -6.50232 6.11703 -8.97277
lowerneck -2.81894 -16.459 -10.5007
upperneck -6.9626 -21.6179 23.7265
head 2.32805 -10.9155 7.53274
rclavicle -7.17116e-014 7.196e-014
rhumerus 28.1312 50.1058 -28.7169
rradius 111.326
rwrist -65.7296
rhand 52.9084 -67.9647
rfingers 7.12502
rthumb 71.7281 -57.2137
lclavicle -7.17116e-014 7.196e-014
lhumerus -53.3952 -4.77702 78.2525
lradius 94.7035
lwrist 47.5806
lhand -0.0850876 -3.03768
lfingers 7.12502
lthumb 25.5089 25.2748
rfemur 17.2293 -21.6604 34.138
rtibia -40.9565
rfoot 1.85453 -28.4365
rtoes 2.86695
lfemur 5.75732 -11.2649 -0.270733
ltibia -44.0542
lfoot 24.428 4.20898
ltoes -26.6507
390
root -2.42798 17.52 5.347 6.11045 28.0654 -9.73509
lowerback 28.6627 9.98703 -0.0296633
upperback 7.0251 12.4451 -4.29413
thorax -6.53699 6.05655 -8.84276
lowerneck -3.52315 -15.9312 -10.0496
upperneck -6.537 -20.9186 23.2222
head 2.33681 -10.5088 7.35252
rclavicle -1.35174e-014 -3.57812e-015
rhumerus 23.747 44.4156 -29.9152
rradius 110.224
rwrist -67.0848
rhand 51.9726 -69.9736
rfingers 7.12502
rthumb 71.1861 -61.4972
lclavicle -1.35174e-014 -3.57812e-015
lhumerus -53.9988 -5.20986 77.3954
lradius 94.8277
lwrist 48.7097
lhand -0.424956 -2.25202
lfingers 7.12502
lthumb 25.1833 26.1066
rfemur 17.1661 -20.4752 34.1024
rtibia -37.9866
rfoot 0.615303 -26.7248
rtoes 1.92219
lfemur 7.64883 -9.37131 0.0472243
ltibia -42.9886
lfoot 23.1491 4.58977
ltoes -27.1261
391
root -2.34593 17.6016 5.3583 4.73078 24.9032 -10.8349
lowerback 28.3938 9.88094 -0.0510566
upperback 6.90008 12.2857 -4.39543
thorax -6.55319 5.97013 -8.86074
lowerneck -4.13658 -15.3771 -9.74807
upperneck -6.14676 -20.1828 22.68
head 2.33275 -10.0895 7.19249
rclavicle -5.48646e-014 5.24792e-014
rhumerus 20.1096 37.7974 -31.1077
rradius 106.698
rwrist -68.3656
rhand 51.2029 -67.703
rfingers 7.12502
rthumb 70.7185 -60.9976
lclavicle -5.48646e-014 5.24792e-014
lhumerus -54.7304 -5.86525 76.4574
lradius 95.0411
lwrist 49.8008
lhand -0.574619 -1.71319
lfingers 7.12502
lthumb 25.0399 26.6655
rfemur 17.1345 -19.3108 34.1149
rtibia -34.7158
rfoot -0.610292 -24.8436
rtoes 1.16247
lfemur 9.6854 -7.8783 0.608348
ltibia -41.7928
lfoot 21.71 5.37257
ltoes -26.9256
